<svg width="147" height="48" viewBox="0 0 147 48" fill="none" xmlns="http://www.w3.org/2000/svg">
<path d="M71.5289 19.9946C71.2407 19.9279 70.9266 19.9774 70.6169 19.9774C70.6276 20.1387 70.6362 20.2786 70.6513 20.5109C70.2791 20.2958 70.0038 20.1172 69.7112 19.9731C69.5413 19.8892 69.3477 19.8225 69.1627 19.8139C68.6421 19.7903 68.1194 19.7924 67.5967 19.801C66.6416 19.8182 65.7188 19.7386 64.9014 19.1578C64.7658 19.061 64.5184 19.0782 64.3313 19.1062C63.6236 19.2138 63.017 19.0051 62.4383 18.6114C62.1909 18.4437 61.8898 18.278 61.6058 18.2608C61.0595 18.2285 60.6185 18.0048 60.2592 17.652C59.5838 16.9852 58.7642 16.5851 57.9102 16.2215C57.7037 16.1334 57.4908 16.0538 57.3058 15.9311C57.1638 15.8387 57.0627 15.6838 56.9487 15.5633C57.7037 14.9976 58.3878 14.4813 59.0783 13.9715C59.345 13.7736 59.6053 13.4918 59.9065 13.4316C60.4421 13.324 60.6615 13.0357 60.868 12.5539C61.3154 11.5192 61.3133 10.5361 60.711 9.60041C60.4141 9.14007 60.0097 8.74427 59.6204 8.35061C59.2052 7.929 59.0439 7.39982 58.8632 6.73513C58.3813 6.72222 57.8091 6.56304 57.3595 6.73082C56.7615 6.95454 56.3743 6.32856 55.8473 6.53937C55.8215 6.55013 55.7935 6.56519 55.7677 6.56519C55.1761 6.55228 54.6814 6.3092 54.1436 5.91985C54.3501 5.8123 54.4684 5.75207 54.5975 5.68538C54.434 5.58858 54.2748 5.49608 54.1221 5.40574C54.135 5.3283 54.1329 5.27237 54.1522 5.22719C54.5523 4.36244 54.6126 3.56008 53.7457 2.91474C53.6359 2.833 53.5521 2.71039 53.4703 2.59853C52.9003 1.81552 52.1022 1.61547 51.2181 2.03924C50.7212 2.27801 50.6115 2.43935 50.7771 2.95561C50.8997 3.33636 50.8524 3.65903 50.7061 4.00966C50.4458 4.62918 50.2114 5.25946 49.9726 5.88759C49.9575 5.92846 49.9855 5.98654 49.992 6.03386C50.1533 5.95857 50.3168 5.88113 50.4781 5.80584C49.9425 6.7846 49.0584 7.31808 48.1721 8.0301C47.2772 7.04274 46.4297 6.11991 45.5994 5.18202C44.9325 4.42698 44.3001 3.63967 43.629 2.88678C43.0718 2.26295 43.1256 1.42402 42.8115 0.71415C42.5104 0.0300944 42.4028 -0.0731592 41.6994 0.0386989C41.2348 0.113988 40.8024 0.271019 40.299 0.126895C39.9118 0.0150366 39.4493 0.378575 39.288 0.724905C39.0901 1.14868 38.8707 1.56169 38.6706 1.98331C38.4942 2.35545 38.3114 2.72544 38.1673 3.11049C37.7693 4.17099 37.2961 5.20998 36.4378 5.95857C34.7298 7.44499 32.9659 8.86903 31.2127 10.3038C30.9632 10.5082 30.6427 10.6243 30.2856 10.8179C30.1307 10.4437 30.021 10.1317 29.8769 9.83704C29.4897 9.04327 28.7217 8.68404 27.9645 8.5055C27.3407 8.35707 26.6179 8.47323 25.9704 8.61305C24.6152 8.9056 23.3074 8.86258 22.0124 8.36137C21.7801 8.27102 21.5262 8.18283 21.2853 8.18498C20.2313 8.19358 19.2417 7.86661 18.2264 7.67731C17.7338 7.58482 17.5768 7.34604 17.5402 6.89431C17.4929 6.31566 17.4133 5.73916 17.3208 5.16481C17.2154 4.51517 16.7228 4.07419 16.1893 4.14303C15.8408 4.1882 15.4966 4.27425 15.1159 4.34954C15.1159 4.53238 15.1202 4.69802 15.1159 4.86365C15.0922 5.69614 14.9804 6.47699 14.1436 6.95024C13.993 7.03628 13.9199 7.31378 13.8704 7.51598C13.737 8.04516 13.6381 8.58293 13.5133 9.16804C12.8981 8.95078 12.9196 8.34846 12.6249 7.98492C12.4958 7.82574 12.3861 7.58912 12.2183 7.53104C11.7343 7.3654 11.5945 6.94809 11.3514 6.58025C11.0116 6.06398 10.6652 5.5305 10.22 5.11103C9.82845 4.74104 9.21538 4.53238 8.74429 4.85075C8.23017 5.19923 7.56548 5.32184 7.18043 5.88328C7.01909 6.11991 6.67922 6.2963 6.46626 6.0102C6.18446 5.6316 5.92633 5.72195 5.60151 5.87038C5.48105 5.92631 5.31756 5.98223 5.20355 5.94567C3.96236 5.54986 3.34714 6.58025 2.68244 7.20837C2.19199 7.67086 1.9274 8.52486 1.85641 9.23257C1.77897 10.0134 1.53805 10.8438 1.89298 11.644C1.95106 11.7752 1.90589 11.9774 1.85426 12.128C1.57892 12.9389 1.76392 13.7284 1.98978 14.5007C2.06077 14.7459 2.28449 14.9524 2.45658 15.1589C2.67814 15.4278 2.95779 15.6558 3.13848 15.9462C3.33853 16.2667 3.54074 16.4281 3.9473 16.3915C4.75182 16.3183 4.85077 16.441 4.87873 17.3702C4.36246 17.5122 3.86771 17.4886 3.34068 17.3122C2.83517 17.1444 2.19629 17.0433 1.88223 17.5768C1.10567 18.8911 0.511966 20.2656 1.09707 21.8596C1.45416 22.8341 2.08873 23.2256 3.10836 23.0234C3.59882 22.9266 4.09573 22.8276 4.59479 22.7997C5.17989 22.7674 5.38209 22.9524 5.52622 23.5353C5.57785 23.7483 5.60366 23.972 5.61011 24.1914C5.64668 25.2821 5.69616 26.3727 5.69831 27.4633C5.70046 28.3883 5.64238 29.3111 5.61872 30.2361C5.60581 30.804 5.37994 31.1568 4.79484 31.3353C3.99247 31.5784 3.21162 31.8967 2.43722 32.2173C1.81769 32.4732 1.25625 32.5227 0.817424 31.8903C0.511966 32.0968 0.26889 32.2624 0 32.4474C0.331272 32.869 0.705566 33.1745 0.841087 33.5639C0.965851 33.9252 1.08847 34.4523 0.436677 34.7082C1.29282 34.8674 1.9231 35.3041 2.51681 35.829C2.82872 36.1043 3.1729 36.4162 3.5558 36.5259C4.40979 36.769 5.2939 36.9798 6.17586 37.0401C6.78462 37.0809 7.4063 36.9691 7.97419 36.5345C8.9594 35.7795 9.31864 34.7104 9.38317 33.6262C9.50363 31.6278 9.40253 29.6187 9.38962 27.6139C9.37887 25.936 9.34875 24.2581 9.35521 22.5824C9.35521 22.32 9.42834 21.9844 9.59828 21.8145C9.97258 21.4445 10.4071 21.1218 10.8567 20.8465C11.5859 20.4012 11.6655 19.8634 11.0675 19.2632C10.8825 19.0761 10.7061 18.8373 10.6287 18.5921C10.4372 17.979 10.3404 17.338 10.1361 16.7314C10.007 16.3485 10.1597 16.0968 10.4243 15.9505C11.4848 15.3654 12.3453 14.5695 13.0487 13.5929C13.3477 13.1777 13.6617 12.7712 13.9801 12.3431C14.1888 12.4463 14.3974 12.5281 14.5846 12.6464C14.9481 12.8766 15.3224 12.8271 15.6021 12.5733C16.099 12.1237 16.6776 12.1538 17.2627 12.1775C18.4372 12.2226 19.6117 12.2743 20.7841 12.3388C21.5951 12.384 22.4039 12.4399 23.2106 12.5173C23.7526 12.569 24.0258 12.8163 24.0366 13.2853C24.0559 14.1264 24.0387 14.9696 24.0301 15.8107C24.0301 15.9484 24.0022 16.0946 23.9505 16.2215C23.7784 16.6432 23.3439 16.6905 23.0471 16.3313C22.4318 15.587 21.6531 15.0492 20.8013 14.6276C20.4528 14.4555 20.057 14.434 19.6999 14.7265C19.5644 14.8384 19.3514 14.9029 19.1729 14.9051C18.8481 14.9115 18.5749 14.9718 18.3404 15.2213C18.1339 15.4428 17.8973 15.4213 17.6757 15.2105C17.495 15.0384 17.2885 14.89 17.1229 14.705C16.6712 14.1973 16.0151 14.1027 15.4343 13.879C15.032 13.7241 14.6491 13.9672 14.4146 14.3028C14.1931 14.619 14.021 14.9782 13.8769 15.3396C13.5413 16.185 13.5434 17.1422 12.997 17.9274C12.8852 18.0887 12.954 18.3684 12.8981 18.5813C12.7153 19.2654 12.5109 19.943 12.2936 20.6959C12.6765 21.1089 12.769 21.7306 12.6701 22.3436C12.5625 23.0212 12.7023 23.6752 12.7217 24.3399C12.7325 24.6711 12.8508 25.0024 12.8443 25.3315C12.7905 27.5579 13.2014 29.737 13.4638 31.9312C13.5327 32.512 13.5951 33.1057 13.7693 33.6585C14.0274 34.4824 14.3566 35.2891 14.7115 36.0764C14.8578 36.4012 15.2278 36.797 15.5526 36.6163C15.9441 36.3969 16.2366 36.5539 16.5765 36.5754C16.9142 36.5969 17.1874 36.5496 17.4735 36.2635C17.7467 35.9925 18.1963 35.7946 18.5835 35.7666C19.4203 35.7064 20.2743 35.7064 21.1068 35.8053C23.1783 36.0548 25.2326 35.9946 27.2633 35.5558C28.014 35.3945 28.7819 35.1148 29.01 34.192C29.0508 34.0242 29.2143 33.8564 29.3649 33.751C29.6983 33.5144 30.036 33.2455 30.4146 33.1207C30.8191 32.9852 30.8556 32.8368 30.8513 32.4152C30.8406 31.6235 30.2791 31.1611 29.9521 30.5673C29.8855 30.4447 29.3993 30.378 29.3025 30.4748C29.0078 30.7782 28.6679 30.6297 28.4765 30.5179C28.1882 30.3479 27.9731 30.3845 27.6935 30.4533C27.2654 30.5609 26.7857 30.7696 26.3964 30.6706C25.566 30.4576 24.783 30.4878 23.9634 30.6771C23.4235 30.8018 22.8535 30.8965 22.3049 30.8707C21.3864 30.8276 20.4765 30.6426 19.5601 30.5846C18.6308 30.5243 17.8371 30.1457 17.0734 29.6746C16.9142 29.5757 16.6884 29.4251 16.6712 29.2788C16.598 28.6055 16.5034 27.9258 16.5571 27.2826C17.6951 27.2331 18.7255 27.2159 19.7516 27.1234C20.0269 27.0997 20.3195 26.8954 20.5389 26.6975C21.1713 26.1296 21.7241 25.4563 21.851 24.6066C22.0468 23.2858 22.6211 22.0511 22.662 20.7002C22.6706 20.4377 22.8556 20.1839 22.8986 19.915C23.0535 18.9685 23.7935 18.1705 23.5203 17.0906C24.114 17.0669 24.0409 17.424 24.0323 17.6757C24 18.6545 23.9118 19.6311 23.8968 20.6098C23.8774 21.8661 24.0301 23.1245 23.6816 24.3657C23.6107 24.6195 23.6989 24.9207 23.7247 25.1982C23.8021 26.0436 24.0925 26.8674 23.972 27.7365C23.9548 27.8548 24.1033 28.0269 24.2173 28.1151C24.2603 28.1495 24.5034 28.0462 24.5292 27.9645C24.6238 27.6698 24.8519 27.7107 25.0713 27.6784C25.5058 27.6139 25.8177 27.8268 26.1296 28.0828C26.4157 28.3151 26.7212 28.5238 27.0073 28.7346C27.558 28.1215 27.6999 27.4956 27.6289 26.8029C27.6074 26.5792 27.5988 26.3512 27.6289 26.1296C27.6655 25.8543 27.6526 25.4606 27.8225 25.3358C28.4163 24.8949 28.341 24.2947 28.2678 23.7311C28.1732 22.9997 28.3754 22.3544 28.5883 21.6811C28.7626 21.1325 29.025 20.5173 28.9196 19.9989C28.6937 18.8868 28.9669 17.8435 29.0659 16.7722C29.1111 16.2839 29.3584 16.0236 29.8467 15.9505C30.434 15.8645 30.9653 15.6451 31.4364 15.2643C31.6472 15.0944 31.9376 15.0255 32.2409 14.8879C32.7981 16.0107 33.0928 17.1401 32.9035 18.3813C32.8196 18.9277 32.7873 19.4891 32.7895 20.0441C32.7959 21.0228 32.8562 21.9995 32.8777 22.9782C32.8906 23.5891 32.8433 24.2022 32.8712 24.811C32.953 26.5684 33.0734 28.3237 33.1509 30.0812C33.1745 30.6147 33.2842 31.0922 33.7317 31.4041C34.0608 31.6343 34.2092 31.9355 34.2931 32.3033C34.3426 32.5206 34.4093 32.7378 34.491 32.9443C34.6222 33.2778 34.8804 33.4477 35.2245 33.3229C36.2936 32.9357 37.3498 32.512 38.4168 32.1248C38.69 32.0258 38.9911 31.9871 39.2837 31.9613C40.3829 31.8602 41.4778 31.6494 42.59 31.7956C42.6158 31.7999 42.6437 31.7806 42.6717 31.7741C43.5902 31.5418 44.5131 31.3288 45.4251 31.0707C46.1242 30.875 46.1866 30.7265 46.1823 30.021C46.1823 29.651 46.2598 29.2788 46.3114 28.8271C46.0963 28.5862 45.7349 28.5324 45.3176 28.5819C44.3754 28.6894 43.4289 28.8163 42.4824 28.8508C40.7981 28.911 39.1331 29.0723 37.4897 29.4488C37.3434 29.4832 37.1885 29.481 36.9885 29.4982C37.0121 29.3197 36.9885 29.1605 37.0487 29.1175C37.2229 28.9906 37.4251 28.8443 37.6295 28.8206C38.647 28.7045 39.6687 28.6227 40.6905 28.5324C41.1917 28.4872 41.6972 28.4786 42.1942 28.4055C42.9363 28.2958 43.672 28.1323 44.4141 28.0161C44.7992 27.9559 45.1885 27.943 45.494 27.5665C45.0121 26.975 45.0465 26.3662 45.3714 25.7058C45.58 25.2821 45.3821 24.9228 44.8981 24.8561C44.2399 24.7636 43.5623 24.6991 42.9019 24.7529C41.6478 24.8518 40.4001 25.0454 39.1503 25.1939C38.5265 25.267 38.0059 25.054 37.5198 24.5636C37.737 24.4689 37.8984 24.3743 38.0726 24.3248C39.6623 23.8881 41.2885 23.7225 42.932 23.6859C43.3149 23.6773 43.7258 23.7591 43.9602 23.3202C44.1345 22.9954 44.3883 22.9309 44.7389 23.0556C45.0487 23.1654 45.2875 23.0083 45.4294 22.7265C45.7263 22.1307 46.0597 21.5477 46.292 20.9282C46.6427 19.9882 46.918 19.0223 47.2256 18.0651C47.2902 18.0651 47.3525 18.0694 47.4171 18.0715C47.4967 18.6609 47.6709 19.2568 47.6386 19.8397C47.5698 21.1261 47.3848 22.4039 47.2686 23.6881C47.1934 24.5227 47.0879 25.3659 47.1288 26.1984C47.1503 26.6416 47.3611 27.1535 47.6558 27.4826C48.0194 27.8849 48.2173 28.2872 48.1958 28.8314C48.3205 28.8056 48.4238 28.8163 48.4754 28.769C48.897 28.3775 49.3122 27.9774 49.7209 27.5751C49.779 27.5192 49.8156 27.4332 49.8392 27.3536C49.9833 26.8803 50.1103 26.4028 50.2608 25.9317C50.5921 24.9056 50.605 23.8516 50.5749 22.7889C50.5491 21.9005 50.4566 21.0056 50.7965 20.0312C51.2654 20.2807 51.7107 20.498 52.1366 20.7432C53.6854 21.6381 55.2278 22.5415 56.7701 23.445C57.3466 23.7827 57.9038 24.1592 58.4953 24.4689C59.1342 24.8045 59.7924 25.1143 60.4657 25.3767C60.9799 25.5746 61.5219 25.7144 62.0662 25.8177C62.9116 25.9769 63.7591 26.0479 64.5012 26.5964C64.8347 26.8438 65.3337 26.8846 65.7639 26.9793C66.1382 27.0632 66.5254 27.1213 66.9083 27.132C67.1364 27.1385 67.3988 27.0825 67.5924 26.9664C68.1022 26.6566 68.5539 26.2436 69.081 25.9747C69.4574 25.7811 69.5714 25.5058 69.6962 25.1551C69.9457 24.4539 70.2426 23.7677 70.5136 23.0729C70.5825 22.8986 70.7201 22.6878 70.6728 22.5415C70.5222 22.0618 70.8169 21.7843 71.088 21.5154C71.2751 21.3283 71.5827 21.2573 71.7591 21.0659C71.929 20.8809 72.099 20.5991 72.0818 20.3732C72.071 20.2269 71.7397 20.0398 71.5246 19.9903L71.5289 19.9946ZM19.4031 31.0621C20.1904 30.9718 20.711 31.4299 21.3133 31.9613C20.4722 32.2151 19.7645 31.9828 19.018 31.8516C19.1492 31.5848 19.2697 31.3396 19.4052 31.0643L19.4031 31.0621ZM17.1121 22.1866C17.153 21.8059 17.1702 21.4488 17.239 21.1024C17.2885 20.8572 17.5015 20.6873 17.7338 20.8034C17.8887 20.8787 18.0543 21.1132 18.0608 21.2831C18.0844 21.7951 17.8693 21.9801 17.1121 22.1866ZM40.9616 7.70313C41.1982 7.44284 41.4628 7.36971 41.7811 7.54179C42.306 7.82144 43.0654 8.67974 43.4461 9.4692C43.145 9.49286 42.8782 9.53158 42.6115 9.52943C41.9963 9.52082 41.381 9.50576 40.768 9.4692C40.2538 9.43908 40.1484 9.35088 39.8968 8.85182C40.2474 8.47538 40.6066 8.09248 40.9594 7.70313H40.9616ZM37.2767 21.2638C37.8403 20.4937 38.5566 20.8723 39.1955 20.8809C38.5824 21.0035 37.9715 21.1261 37.2767 21.2638ZM43.9925 17.9704C43.4891 17.9123 43.188 17.8091 42.8675 17.5015C42.6072 17.2519 42.0199 17.2003 41.6134 17.2734C40.811 17.4154 40.0409 17.2971 39.2557 17.2261C38.7932 17.1831 38.3221 17.1723 37.8597 17.2089C37.4509 17.2412 37.096 17.2154 36.7217 16.7486C38.0619 16.5378 39.2751 16.9572 40.4969 16.8669C41.7338 16.7765 42.9772 16.7529 44.3431 16.6948C44.2033 17.1982 44.1044 17.5617 43.9903 17.9704H43.9925ZM47.1934 13.7133C46.8492 13.4445 46.5545 13.2358 46.2834 12.997C46.0016 12.7475 45.7327 12.6873 45.3778 12.8701C44.9562 13.0874 44.5023 13.1046 44.0183 13.0852C43.1277 13.0487 42.2307 13.1433 41.338 13.1648C40.7873 13.1777 40.2366 13.1734 39.686 13.1498C38.9374 13.1153 38.1866 13.0766 37.4402 12.9992C36.9196 12.9454 36.8486 12.8464 36.6679 12.2355C37.4983 12.0312 38.3178 12.1645 39.1374 12.2355C40.4668 12.3538 41.7854 12.5819 43.1342 12.3711C43.6763 12.285 44.2463 12.399 44.8035 12.4076C45.2573 12.4162 45.6747 12.3366 46.0576 12.0376C46.5738 11.6354 47.1224 11.829 47.3762 12.442C47.5526 12.8637 47.5418 13.2552 47.1912 13.7069L47.1934 13.7133ZM53.5348 13.5197C53.2918 13.7628 53.0186 13.8317 52.7497 13.5025C52.6314 13.3584 52.4528 13.2616 52.2958 13.1541C51.9989 12.9497 51.8204 12.6787 51.8312 12.3151C51.8462 11.8419 51.8613 11.3665 51.9172 10.8975C51.971 10.4329 52.4055 10.0629 52.7884 10.2544C53.7693 10.747 54.8427 10.6329 56.1011 10.8825C55.1546 11.8569 54.3523 12.6959 53.5327 13.5197H53.5348ZM146.495 41.2541C146.267 41.2046 146.035 41.1551 145.811 41.1078C145.833 40.8131 145.848 40.5743 145.863 40.3635C145.106 39.8946 144.854 40.5356 144.523 40.9228C144.151 40.641 144.151 40.641 144.226 40.37C144.245 40.3012 144.318 40.2151 144.297 40.1742C144.058 39.7225 143.974 39.1697 143.329 39.0148C142.357 38.7825 141.402 38.4813 140.442 38.206C139.96 38.0683 139.478 37.922 138.997 37.7843C137.6 37.3885 136.198 37.0099 134.808 36.5926C134.514 36.5044 134.256 36.2915 134.025 36.1603C134.225 35.3321 134.608 34.6502 134.068 33.9166C134.324 33.7037 134.548 33.5423 134.744 33.3487C134.978 33.1164 135.142 32.9142 135.058 32.484C134.931 31.8279 134.804 31.1202 135.279 30.4856C135.436 30.2748 135.452 29.9586 135.538 29.694C135.708 29.1777 135.884 28.6636 136.095 28.0333C136.06 27.9968 135.961 27.8118 135.806 27.7279C135.099 27.3514 134.391 26.975 133.546 26.9986C133.335 27.0051 133.124 26.8997 132.911 26.8696C132.681 26.8352 132.444 26.8158 132.212 26.8158C132.046 26.8158 131.883 26.8717 131.717 26.876C130.069 26.9234 128.424 26.9793 126.776 27.0072C124.924 27.0374 123.07 27.0546 121.218 27.0524C120.454 27.0524 120.338 26.9169 120.198 26.0134C120.626 25.8951 121.063 25.7381 121.512 25.6585C122.194 25.5359 122.885 25.4133 123.575 25.3875C124.831 25.3401 126.094 25.3208 127.35 25.3681C128.426 25.409 129.497 25.5639 130.568 25.6607C131.263 25.7252 131.96 25.7747 132.657 25.8349C133.098 25.8736 133.537 25.9597 133.978 25.9597C134.875 25.9554 135.415 25.3208 135.972 24.7421C136.034 24.6776 136.032 24.527 136.026 24.4195C135.959 23.3805 135.654 22.3845 134.843 21.7392C133.858 20.954 132.956 20.1022 132.102 19.1836C130.682 17.6585 129.497 15.9742 128.499 14.1436C128.14 13.4853 127.66 12.8873 127.196 12.2936C126.744 11.715 126.238 11.6827 125.703 12.1452C125.012 12.7389 124.156 13.1627 123.73 14.036C123.685 14.1285 123.567 14.1866 123.476 14.2533C122.876 14.7029 122.5 15.346 122.196 15.9914C121.42 17.637 120.366 19.0696 119.088 20.3474C118.337 21.0981 117.539 21.8037 116.827 22.5867C116.107 23.3762 115.36 24.1118 114.388 24.5894C114.439 25.3767 114.616 26.0995 115.055 26.747C115.158 26.8997 115.216 27.0868 115.285 27.2611C115.457 27.7021 115.605 27.758 116.044 27.5751C116.335 27.4547 116.638 27.3622 117.023 27.2267C117.047 27.6698 117.062 27.971 117.077 28.2721C117.008 28.2248 116.941 28.1775 116.872 28.1301C116.677 28.4012 116.311 28.6787 116.317 28.9454C116.33 29.4767 116.083 29.8811 115.926 30.3393C115.67 31.0793 115.799 31.2794 116.567 31.4687C116.655 31.7634 116.801 32.0667 116.421 32.2775C115.95 32.5378 115.81 32.9744 115.913 33.4326C116.216 34.3038 116.517 35.1772 116.834 36.0914C116.55 36.2011 116.347 36.2786 116.227 36.3259C116.137 36.7905 115.846 37.3369 116.01 37.6209C116.494 38.4641 116.315 39.3396 116.393 40.2044C116.408 40.3635 116.505 40.5163 116.558 40.6733C116.621 40.8561 116.694 41.039 116.735 41.2261C116.926 42.1124 116.984 43.0051 116.937 43.915C116.915 44.3259 117.012 44.754 117.118 45.1562C117.287 45.8037 117.535 46.4297 117.701 47.0772C117.842 47.6343 118.135 47.9699 118.662 48C119.043 47.7913 119.378 47.4558 119.718 47.4515C120.572 47.4386 121.381 47.2471 122.19 47.0406C123.485 46.7093 124.84 46.6534 126.098 46.1866C126.634 45.9887 127.165 45.8962 127.735 45.8984C128.026 45.8984 128.321 45.7779 128.607 45.6875C128.975 45.5735 129.319 45.4165 129.659 45.7887C129.891 46.0403 130.216 45.9887 130.508 45.851C131.278 45.4875 132.042 45.1347 132.857 44.8594C133.421 44.6679 133.875 44.199 134.555 44.4162C134.634 44.4421 134.761 44.3431 134.86 44.2936C135.161 44.143 135.456 43.9839 135.757 43.8333C136.523 43.4525 136.57 42.577 137.026 41.9833C137.069 41.9274 137 41.7747 136.966 41.6714C136.77 41.1057 136.57 40.5399 136.372 39.9763C136.394 39.9075 136.415 39.8387 136.437 39.7698C137.342 40.2646 138.444 39.6192 139.289 40.4453C139.986 39.9763 140.623 40.37 141.18 40.6475C141.888 41.0024 142.582 41.3079 143.368 41.4262C143.561 41.4563 143.8 41.5682 143.91 41.7209C144.377 42.3641 144.912 42.5017 145.566 42.0995C145.626 42.0629 145.712 42.0629 145.796 42.0414C145.85 42.164 145.889 42.2694 145.943 42.3662C145.992 42.4544 146.059 42.534 146.128 42.6287C146.618 41.9941 146.745 41.4929 146.5 41.2562L146.495 41.2541ZM125.984 21.4122C125.427 21.4617 124.963 21.5348 124.748 20.9411C125.451 20.5948 125.556 20.6292 125.984 21.4122ZM120.673 31.9096C121.635 31.7591 122.603 31.6386 123.564 31.4794C124.552 31.3159 125.535 31.189 126.544 31.2901C126.95 31.331 127.368 31.232 127.781 31.217C128.138 31.2019 128.497 31.2148 128.856 31.2148C128.863 31.2923 128.869 31.3697 128.876 31.4472C128.589 31.6945 128.222 31.6171 127.88 31.6063C127.361 31.5891 126.826 31.417 126.389 31.8731C126.344 31.9204 126.228 31.8989 126.144 31.9032C124.367 32.0172 122.592 32.1312 120.815 32.2388C120.684 32.2474 120.551 32.2065 120.26 32.1678C120.48 32.028 120.57 31.929 120.671 31.9139L120.673 31.9096ZM120.151 36.4334C120.161 35.9753 120.443 35.8591 120.699 35.7903C121.45 35.5859 122.205 35.3837 122.971 35.246C124.53 34.9664 126.094 34.6996 127.662 34.4845C128.432 34.377 129.22 34.392 130.149 34.3447C129.951 34.5684 129.861 34.7642 129.717 34.8158C129.222 34.9943 128.719 35.1707 128.202 35.2611C127.161 35.4461 126.109 35.5665 125.066 35.73C123.549 35.9688 122.037 36.2226 120.523 36.4657C120.42 36.4829 120.308 36.4507 120.151 36.4356V36.4334ZM134.081 41.85C133.655 41.8349 133.29 41.9382 132.89 42.1188C132.459 42.3124 131.911 42.3318 131.425 42.2909C130.936 42.2501 130.495 42.2415 130.248 42.4415C129.809 42.3426 129.51 42.192 129.239 42.2286C128.159 42.3748 127.09 42.5835 126.015 42.7599C124.911 42.9406 123.81 43.1256 122.704 43.2826C121.99 43.3859 121.476 43.003 121.304 42.2909C121.252 42.078 121.205 41.8629 121.132 41.5488C124.326 40.9142 127.441 40.0839 130.734 40.0086C130.824 40.6518 130.913 41.2971 131.612 41.6176C132.141 41.353 132.55 41.054 132.515 40.3334C132.47 39.4149 133.668 38.4404 134.658 39.2514C134.808 39.374 134.965 39.488 135.15 39.63C135.101 39.8903 134.991 40.1635 135.015 40.4216C135.039 40.6797 135.198 40.9271 135.318 41.2326C135.036 41.6499 134.617 41.8629 134.083 41.8457L134.081 41.85ZM82.5405 32.3549C81.6951 32.0086 80.8691 31.6106 80.0065 31.2234C80.0151 30.2533 80.1377 29.3455 80.8691 28.6744C81.224 28.3495 81.6456 28.0161 82.0952 27.8914C82.6631 27.7343 82.6674 27.3643 82.6889 26.9513C82.6997 26.7319 82.5599 26.4307 82.661 26.2995C83.1471 25.6736 82.6631 25.3638 82.3103 24.9852C82.0845 24.7421 81.7661 24.5055 81.6951 24.2151C81.5273 23.5353 81.1036 23.189 80.5055 22.9416C80.3636 22.8836 80.1958 22.6706 80.1915 22.5265C80.1678 21.4767 80.0882 20.4119 80.2173 19.3772C80.3033 18.6932 80.0581 18.1834 79.7849 17.652C79.6473 17.381 79.3655 17.1551 79.0191 17.2412C78.4039 17.3961 77.7865 17.5617 77.2036 17.8026C77.025 17.8758 76.8745 18.1941 76.8422 18.42C76.6959 19.4332 76.2679 20.4012 76.3969 21.4638C76.4378 21.8102 76.3345 22.1952 76.2227 22.5372C76.0334 23.118 75.7968 23.5741 75.046 23.7548C73.7682 24.0624 73.1294 24.9938 73.3983 26.377C73.6499 27.6784 74.3405 28.683 75.3214 29.5133C76.0119 30.0984 76.1216 30.8405 76.0958 31.6235C75.0116 32.1893 73.936 31.7376 72.7938 31.8301C73.039 32.3291 72.9551 32.6776 72.6475 32.9831C72.5529 33.0777 72.5185 33.2304 72.4475 33.3487C71.7957 34.4415 72.6927 35.6225 73.878 35.8957C74.661 36.0764 75.4784 36.1022 76.3819 36.2076C76.4141 36.6765 76.4593 37.1734 76.483 37.6703C76.5281 38.7007 76.5195 39.7376 76.6099 40.7636C76.6787 41.5423 77.2358 41.7596 77.9371 41.3638C78.1544 41.2412 78.3716 41.082 78.6061 41.0347C79.1181 40.9314 79.2923 40.6002 79.3224 40.1398C79.3848 39.217 79.473 38.2963 79.4838 37.3713C79.4902 36.7927 79.6193 36.2721 79.8387 35.7472C80.0237 35.3041 80.3076 35.089 80.7852 35.0782C81.7898 35.0524 82.6696 34.7233 83.4225 34.0285C83.7301 33.7445 83.7473 33.5058 83.5644 33.168C83.3364 32.7443 82.9707 32.5399 82.5405 32.3635V32.3549ZM87.4171 21.2014C87.729 21.1239 88.0796 21.0444 88.3829 21.1089C89.9468 21.4445 91.5343 21.5327 93.1219 21.6015C95.1504 21.6875 97.1832 21.7134 99.3773 21.7693C99.3171 22.1931 99.2956 22.4899 99.2267 22.776C99.1106 23.2643 98.9406 23.7419 98.8417 24.2345C98.7019 24.9379 98.4996 25.652 98.519 26.3555C98.5427 27.2159 98.3426 27.943 97.822 28.6055C97.4542 29.0723 97.4564 29.0702 97.9081 29.6058C97.9769 29.6875 98.0199 29.7929 98.0673 29.8919C98.3663 30.5179 98.9944 30.8276 99.6892 30.7502C100.453 30.6641 100.831 30.107 101.189 29.552C102.26 27.8849 102.75 25.979 103.318 24.1161C103.499 23.5246 103.63 22.9459 104.05 22.4662C104.57 21.8704 104.673 21.0422 104.495 20.4162C103.957 18.5318 103 16.9164 100.791 16.4818C100.689 16.6561 100.584 16.8411 100.479 17.0218C100.231 16.9572 99.9968 16.8497 99.7602 16.8432C99.345 16.8282 98.9299 16.9013 98.5147 16.8905C97.9296 16.8755 97.2929 16.6539 96.7701 16.8174C95.6752 17.1573 94.6018 16.9293 93.522 16.9422C93.1584 16.9465 92.8487 16.8712 92.7368 16.413C93.7177 16.2904 94.7008 16.7142 95.6752 16.3657C95.5569 16.299 95.4322 16.2775 95.3052 16.2689C94.1867 16.1957 93.0702 16.1161 91.9495 16.0581C91.5752 16.0387 91.345 15.9677 91.2547 15.5224C91.0804 14.6706 90.2049 14.4447 89.6521 13.9306C89.5467 13.8317 89.1616 13.9392 88.9637 14.0511C88.3829 14.3802 87.8194 14.7459 87.2708 15.1266C86.9352 15.359 86.7416 15.6773 86.7718 16.1291C86.7868 16.3614 86.7158 16.6432 86.5868 16.8346C86.1458 17.48 86.0662 18.2393 85.8468 18.9556C85.6682 19.5321 85.7995 20.0699 86.0361 20.5862C86.305 21.1734 86.7954 21.3606 87.4235 21.2035L87.4171 21.2014ZM110.077 32.8454C109.744 33.0756 109.318 33.4412 109.006 33.3767C108.111 33.1917 107.229 33.3036 106.343 33.267C104.833 33.2025 103.621 33.6542 102.92 35.1062C102.795 35.3643 102.555 35.6139 102.303 35.7558C101.851 36.014 101.331 36.1495 100.874 36.4012C99.6032 37.1046 98.1576 36.9798 96.8024 37.2702C95.4451 37.5606 94.0576 37.7951 92.6486 37.651C92.5948 37.6445 92.5368 37.6639 92.4808 37.6682C91.6247 37.7263 90.7707 37.7973 89.9145 37.8381C89.4004 37.8618 89.2584 37.7456 89.2004 37.2272C89.1509 36.7819 89.1616 36.3302 89.1681 35.8806C89.1832 34.7728 89.4499 34.4867 90.5448 34.2522C91.5021 34.0457 92.4593 33.8844 93.4445 33.8758C94.0146 33.8693 94.4835 33.665 94.832 33.1186C95.3526 32.3012 95.7225 31.4364 95.8344 30.4921C95.9699 29.3262 95.9871 28.1473 96.0947 26.9793C96.1893 25.9446 95.6989 25.2025 94.9933 24.5485C94.4857 24.0774 93.8747 24.028 93.2273 24.3549C92.9584 24.4904 92.6658 24.5958 92.3711 24.6647C91.6096 24.8432 90.8417 24.9938 90.0759 25.1551C89.6693 25.2412 89.3596 25.153 89.0046 24.8712C88.6045 24.5528 88.0732 24.3915 87.5806 24.2086C87.2665 24.0925 86.9546 24.2022 86.8126 24.5249C86.6083 24.9874 86.4405 25.4671 86.277 25.9467C86.2447 26.0392 86.3093 26.164 86.3222 26.2737C86.3609 26.577 86.4555 26.8846 86.4233 27.1815C86.3071 28.2893 86.191 29.4014 85.9866 30.4964C85.8919 31.0083 85.879 31.4837 85.9758 31.9871C86.1071 32.6625 86.2189 33.3466 86.305 34.0285C86.505 35.6096 86.6448 37.1992 86.8793 38.7739C87.131 40.4517 87.9721 41.1143 89.3316 41.4972C89.523 41.551 89.7575 41.5122 89.9554 41.4585C90.4652 41.3208 90.9557 41.1078 91.4698 41.0046C92.5905 40.7787 93.7199 40.5894 94.8513 40.4066C97.2197 40.0215 99.5946 39.6644 101.961 39.2686C102.619 39.1589 103.288 39.0126 103.899 38.7566C104.284 38.5975 104.654 38.2576 104.884 37.9027C105.172 37.4552 105.312 36.911 105.596 36.2097C106.278 35.9796 107.136 35.6547 108.016 35.4009C108.935 35.1342 109.685 34.6437 110.318 33.9403C110.744 33.4671 110.838 32.9185 110.602 32.2302C110.43 32.4388 110.29 32.6948 110.077 32.8432V32.8454ZM89.465 29.4509C90.3469 29.1541 91.1751 28.8744 92.0377 28.584C91.7946 29.1906 90.6223 29.9715 89.3983 30.3264C89.4241 29.9758 89.4434 29.7155 89.465 29.4509Z" fill="white"/>
</svg>
