<svg width="130" height="60" viewBox="0 0 130 60" fill="none" xmlns="http://www.w3.org/2000/svg">
<g clip-path="url(#clip0_86_19320)">
<path d="M56.611 15.8493C56.3828 15.7964 56.1343 15.8357 55.8891 15.8357C55.8976 15.9636 55.9044 16.0744 55.9163 16.2586C55.6218 16.0881 55.4039 15.9465 55.1723 15.8322C55.0378 15.7657 54.8846 15.7129 54.7382 15.706C54.3262 15.6873 53.9124 15.689 53.4987 15.6958C52.7428 15.7094 52.0124 15.6463 51.3655 15.1859C51.2582 15.1091 51.0624 15.1228 50.9143 15.1449C50.3541 15.2302 49.874 15.0648 49.4161 14.7527C49.2203 14.6196 48.9819 14.4883 48.7572 14.4747C48.3247 14.4491 47.9757 14.2717 47.6914 13.992C47.1568 13.4633 46.5081 13.1461 45.8322 12.8578C45.6688 12.7879 45.5002 12.7248 45.3538 12.6276C45.2414 12.5542 45.1614 12.4314 45.0712 12.3359C45.6688 11.8874 46.2102 11.4781 46.7567 11.0739C46.9678 10.917 47.1738 10.6935 47.4122 10.6458C47.8361 10.5605 48.0098 10.332 48.1732 9.94993C48.5273 9.12957 48.5256 8.35015 48.0489 7.60825C47.814 7.24327 47.4939 6.92946 47.1857 6.61735C46.8571 6.28307 46.7295 5.86351 46.5864 5.33651C46.2051 5.32628 45.7522 5.20007 45.3964 5.3331C44.9231 5.51047 44.6166 5.01417 44.1995 5.18131C44.1791 5.18983 44.1569 5.20177 44.1365 5.20177C43.6683 5.19154 43.2767 4.99882 42.8511 4.69012C43.0145 4.60484 43.1082 4.55709 43.2103 4.50422C43.0809 4.42747 42.9549 4.35413 42.8341 4.2825C42.8443 4.2211 42.8426 4.17676 42.8579 4.14094C43.1746 3.45533 43.2222 2.81917 42.5361 2.30751C42.4493 2.24271 42.3829 2.14549 42.3182 2.0568C41.867 1.436 41.2354 1.27738 40.5356 1.61337C40.1423 1.80268 40.0555 1.9306 40.1866 2.33992C40.2837 2.6418 40.2462 2.89762 40.1304 3.17562C39.9244 3.66681 39.7388 4.16653 39.5499 4.66454C39.5379 4.69694 39.5601 4.74299 39.5652 4.78051C39.6929 4.72082 39.8223 4.65942 39.95 4.59973C39.526 5.37574 38.8263 5.7987 38.1248 6.36323C37.4166 5.5804 36.7458 4.84873 36.0886 4.10513C35.5608 3.50649 35.0603 2.88227 34.5291 2.28534C34.0881 1.79074 34.1307 1.12559 33.8821 0.562773C33.6438 0.0204195 33.5586 -0.0614452 33.0019 0.0272416C32.6342 0.0869346 32.292 0.211437 31.8936 0.0971677C31.5871 0.00848091 31.2211 0.296713 31.0934 0.571301C30.9367 0.907287 30.7631 1.23475 30.6047 1.56903C30.4651 1.86408 30.3204 2.15743 30.2064 2.46272C29.8914 3.30353 29.5168 4.1273 28.8375 4.72082C27.4857 5.89933 26.0896 7.02838 24.7021 8.16596C24.5046 8.32798 24.2509 8.42008 23.9683 8.57358C23.8457 8.27682 23.7589 8.02952 23.6448 7.79586C23.3383 7.16653 22.7305 6.8817 22.1312 6.74015C21.6375 6.62247 21.0655 6.71456 20.553 6.82542C19.4804 7.05737 18.4452 7.02326 17.4203 6.62588C17.2365 6.55425 17.0356 6.48432 16.8449 6.48603C16.0106 6.49285 15.2275 6.23361 14.4239 6.08352C14.034 6.01019 13.9097 5.82087 13.8808 5.46272C13.8433 5.00393 13.7803 4.54686 13.7071 4.09148C13.6237 3.57642 13.2338 3.22679 12.8116 3.28136C12.5358 3.31718 12.2633 3.3854 11.962 3.44509C11.962 3.59006 11.9654 3.72139 11.962 3.85271C11.9433 4.51274 11.8547 5.13185 11.1925 5.50706C11.0733 5.57528 11.0154 5.79529 10.9762 5.95561C10.8707 6.37517 10.7924 6.80155 10.6936 7.26545C10.2067 7.09319 10.2237 6.61564 9.99046 6.32741C9.88831 6.2012 9.80148 6.0136 9.66869 5.96755C9.28561 5.83622 9.17495 5.50535 8.98256 5.21371C8.71356 4.80439 8.43946 4.38142 8.08703 4.04884C7.77717 3.7555 7.29195 3.59006 6.91909 3.84248C6.51219 4.11877 5.9861 4.21599 5.68135 4.66112C5.55366 4.84873 5.28466 4.98858 5.11611 4.76175C4.89308 4.46158 4.68877 4.53321 4.43169 4.65089C4.33635 4.69524 4.20696 4.73958 4.11672 4.71059C3.13436 4.39677 2.64743 5.21371 2.12135 5.71172C1.73317 6.07841 1.52376 6.7555 1.46758 7.31661C1.40629 7.93571 1.2156 8.59404 1.49652 9.22849C1.54249 9.33253 1.50674 9.49285 1.46588 9.61223C1.24795 10.2552 1.39437 10.8811 1.57314 11.4934C1.62932 11.6878 1.80638 11.8516 1.94259 12.0153C2.11795 12.2285 2.33928 12.4093 2.48229 12.6395C2.64062 12.8936 2.80066 13.0216 3.12244 12.9926C3.75919 12.9346 3.83751 13.0318 3.85964 13.7686C3.45103 13.8811 3.05945 13.8624 2.64233 13.7225C2.24223 13.5895 1.73658 13.5093 1.48801 13.9323C0.873394 14.9744 0.403494 16.0642 0.866584 17.328C1.1492 18.1006 1.65145 18.411 2.45845 18.2507C2.84663 18.1739 3.23992 18.0955 3.6349 18.0733C4.09799 18.0477 4.25803 18.1944 4.3721 18.6566C4.41296 18.8254 4.43339 19.0028 4.4385 19.1768C4.46744 20.0415 4.5066 20.9062 4.5083 21.7708C4.51001 22.5042 4.46404 23.2359 4.44531 23.9693C4.4351 24.4195 4.25633 24.6992 3.79324 24.8408C3.15819 25.0335 2.54017 25.2859 1.92726 25.54C1.43693 25.743 0.992571 25.7822 0.645254 25.2808C0.403494 25.4445 0.211108 25.5759 -0.00170898 25.7225C0.260481 26.0568 0.556722 26.299 0.663982 26.6077C0.762729 26.8942 0.859773 27.3121 0.343905 27.515C1.02151 27.6412 1.52036 27.9874 1.99026 28.4036C2.23712 28.6219 2.50953 28.8692 2.81258 28.9562C3.48849 29.1489 4.18823 29.316 4.88627 29.3638C5.36808 29.3962 5.86012 29.3075 6.30959 28.963C7.08935 28.3644 7.37367 27.5167 7.42475 26.6571C7.52009 25.0727 7.44007 23.4798 7.42985 21.8902C7.42134 20.5599 7.3975 19.2296 7.40261 17.901C7.40261 17.693 7.4605 17.4269 7.595 17.2922C7.89124 16.9988 8.23515 16.743 8.59098 16.5247C9.16814 16.1716 9.23113 15.7453 8.75783 15.2694C8.61141 15.121 8.4718 14.9317 8.41051 14.7373C8.25899 14.2512 8.18237 13.743 8.02063 13.262C7.91848 12.9585 8.03936 12.7589 8.24877 12.6429C9.08812 12.179 9.76914 11.548 10.3259 10.7737C10.5625 10.4445 10.8111 10.1222 11.0631 9.78279C11.2282 9.86465 11.3934 9.92946 11.5415 10.0233C11.8292 10.2058 12.1254 10.1665 12.3468 9.96528C12.7401 9.60882 13.198 9.6327 13.6611 9.65146C14.5907 9.68728 15.5203 9.72821 16.4482 9.77937C17.09 9.81519 17.7302 9.85953 18.3686 9.92093C18.7977 9.96186 19.0139 10.158 19.0224 10.5298C19.0377 11.1967 19.0241 11.8652 19.0173 12.5321C19.0173 12.6412 18.9952 12.7572 18.9543 12.8578C18.8181 13.1921 18.4742 13.2296 18.2392 12.9448C17.7523 12.3547 17.136 11.9283 16.4618 11.594C16.186 11.4576 15.8727 11.4405 15.5901 11.6725C15.4828 11.7612 15.3143 11.8123 15.173 11.8141C14.9159 11.8192 14.6997 11.8669 14.5141 12.0648C14.3507 12.2404 14.1634 12.2234 13.988 12.0562C13.845 11.9198 13.6816 11.8021 13.5505 11.6554C13.1929 11.2529 12.6737 11.1779 12.214 11.0005C11.8956 10.8777 11.5925 11.0704 11.407 11.3365C11.2316 11.5872 11.0954 11.872 10.9813 12.1586C10.7157 12.8288 10.7174 13.5878 10.285 14.2103C10.1965 14.3382 10.251 14.5599 10.2067 14.7288C10.062 15.2711 9.90023 15.8084 9.72827 16.4053C10.0313 16.7328 10.1045 17.2257 10.0262 17.7117C9.94109 18.249 10.0518 18.7674 10.0671 19.2944C10.0756 19.5571 10.1692 19.8197 10.1641 20.0807C10.1216 21.8459 10.4467 23.5736 10.6545 25.3132C10.7089 25.7737 10.7583 26.2444 10.8962 26.6827C11.1005 27.3359 11.361 27.9755 11.6419 28.5997C11.7577 28.8573 12.0505 29.1711 12.3076 29.0278C12.6175 28.8538 12.849 28.9784 13.118 28.9954C13.3853 29.0125 13.6015 28.9749 13.828 28.7481C14.0442 28.5332 14.4 28.3763 14.7065 28.3541C15.3688 28.3064 16.0447 28.3064 16.7036 28.3848C18.3431 28.5827 19.969 28.5349 21.5762 28.187C22.1704 28.0591 22.7782 27.8374 22.9587 27.1057C22.991 26.9727 23.1204 26.8396 23.2396 26.7561C23.5035 26.5685 23.7708 26.3553 24.0704 26.2563C24.3905 26.1489 24.4194 26.0312 24.416 25.6969C24.4075 25.0693 23.9632 24.7026 23.7044 24.2319C23.6516 24.1347 23.2668 24.0818 23.1902 24.1586C22.957 24.399 22.688 24.2814 22.5364 24.1927C22.3083 24.0579 22.138 24.0869 21.9167 24.1415C21.5779 24.2268 21.1982 24.3922 20.8901 24.3138C20.2329 24.1449 19.6132 24.1688 18.9645 24.3189C18.5372 24.4178 18.086 24.4928 17.6519 24.4724C16.9249 24.4383 16.2047 24.2916 15.4794 24.2456C14.7439 24.1978 14.1157 23.8976 13.5113 23.5241C13.3853 23.4457 13.2066 23.3263 13.1929 23.2103C13.135 22.6765 13.0601 22.1375 13.1027 21.6276C14.0033 21.5884 14.8189 21.5747 15.631 21.5014C15.8489 21.4826 16.0804 21.3206 16.2541 21.1637C16.7546 20.7134 17.1922 20.1796 17.2926 19.5059C17.4476 18.4587 17.9021 17.4798 17.9345 16.4087C17.9413 16.2006 18.0877 15.9994 18.1218 15.7862C18.2444 15.0358 18.83 14.403 18.6138 13.5469C19.0837 13.5281 19.0258 13.8112 19.019 14.0108C18.9935 14.7868 18.9237 15.5611 18.9117 16.3371C18.8964 17.3331 19.0173 18.3308 18.7415 19.3149C18.6853 19.5162 18.7551 19.7549 18.7755 19.9749C18.8368 20.6452 19.0667 21.2984 18.9713 21.9874C18.9577 22.0813 19.0752 22.2177 19.1654 22.2876C19.1995 22.3149 19.3919 22.233 19.4123 22.1682C19.4872 21.9346 19.6677 21.967 19.8413 21.9414C20.1852 21.8902 20.4321 22.0591 20.679 22.262C20.9054 22.4462 21.1472 22.6117 21.3736 22.7788C21.8095 22.2927 21.9218 21.7964 21.8656 21.2473C21.8486 21.0699 21.8418 20.8891 21.8656 20.7134C21.8946 20.4951 21.8844 20.183 22.0189 20.0841C22.4888 19.7345 22.4292 19.2586 22.3713 18.8118C22.2964 18.2319 22.4564 17.7202 22.625 17.1864C22.7629 16.7515 22.9706 16.2637 22.8872 15.8527C22.7084 14.971 22.9246 14.1438 23.0029 13.2944C23.0387 12.9073 23.2345 12.7009 23.621 12.6429C24.0857 12.5747 24.5063 12.4008 24.8791 12.0989C25.046 11.9641 25.2758 11.9096 25.5159 11.8004C25.9568 12.6907 26.1901 13.5861 26.0403 14.5702C25.9739 15.0034 25.9483 15.4485 25.95 15.8885C25.9551 16.6645 26.0028 17.4388 26.0198 18.2148C26.03 18.6992 25.9926 19.1853 26.0147 19.6679C26.0794 21.0614 26.1748 22.4531 26.236 23.8465C26.2548 24.2694 26.3416 24.6481 26.6957 24.8953C26.9562 25.0778 27.0737 25.3166 27.1401 25.6083C27.1793 25.7805 27.232 25.9528 27.2967 26.1165C27.4006 26.3809 27.6049 26.5156 27.8773 26.4167C28.7234 26.1097 29.5594 25.7737 30.4039 25.4667C30.6201 25.3882 30.8584 25.3575 31.09 25.3371C31.96 25.2569 32.8266 25.0898 33.7068 25.2058C33.7272 25.2092 33.7493 25.1938 33.7715 25.1887C34.4984 25.0045 35.2288 24.8357 35.9507 24.631C36.504 24.4758 36.5534 24.3581 36.55 23.7987C36.55 23.5054 36.6113 23.2103 36.6521 22.8521C36.4819 22.6611 36.1959 22.6185 35.8656 22.6577C35.1199 22.743 34.3708 22.8436 33.6216 22.8709C32.2886 22.9187 30.9708 23.0466 29.6701 23.345C29.5543 23.3723 29.4317 23.3706 29.2734 23.3843C29.2921 23.2427 29.2734 23.1165 29.321 23.0824C29.4589 22.9818 29.619 22.8658 29.7807 22.847C30.586 22.7549 31.3947 22.6901 32.2034 22.6185C32.6001 22.5827 33.0002 22.5758 33.3935 22.5179C33.9809 22.4309 34.5631 22.3013 35.1505 22.2092C35.4553 22.1614 35.7634 22.1512 36.0052 21.8527C35.6238 21.3837 35.6511 20.901 35.9081 20.3774C36.0733 20.0415 35.9167 19.7566 35.5336 19.7038C35.0126 19.6304 34.4763 19.5793 33.9536 19.6219C32.9611 19.7004 31.9736 19.8538 30.9844 19.9715C30.4907 20.0295 30.0787 19.8607 29.6939 19.4718C29.8658 19.3968 29.9935 19.3217 30.1314 19.2825C31.3896 18.9363 32.6767 18.805 33.9775 18.776C34.2805 18.7691 34.6057 18.834 34.7913 18.486C34.9292 18.2285 35.1301 18.1773 35.4076 18.2762C35.6528 18.3632 35.8417 18.2387 35.9541 18.0153C36.1891 17.5429 36.453 17.0807 36.6368 16.5895C36.9143 15.8442 37.1323 15.0784 37.3757 14.3195C37.4268 14.3195 37.4762 14.3229 37.5273 14.3246C37.5902 14.7919 37.7281 15.2643 37.7026 15.7265C37.6481 16.7464 37.5017 17.7595 37.4098 18.7777C37.3502 19.4394 37.2668 20.108 37.2991 20.768C37.3161 21.1193 37.483 21.5253 37.7162 21.7862C38.004 22.1051 38.1606 22.4241 38.1436 22.8556C38.2423 22.8351 38.324 22.8436 38.3649 22.8061C38.6986 22.4957 39.0272 22.1785 39.3507 21.8595C39.3966 21.8152 39.4256 21.747 39.4443 21.6839C39.5584 21.3087 39.6588 20.93 39.778 20.5565C40.0402 19.743 40.0504 18.9073 40.0266 18.0648C40.0061 17.3604 39.9329 16.6509 40.2019 15.8783C40.5731 16.0761 40.9255 16.2484 41.2626 16.4428C42.4884 17.1523 43.7092 17.8686 44.9299 18.5849C45.3862 18.8527 45.8271 19.1512 46.2953 19.3968C46.801 19.6628 47.3219 19.9084 47.8548 20.1165C48.2617 20.2734 48.6908 20.3843 49.1215 20.4661C49.7906 20.5923 50.4614 20.6486 51.0488 21.0835C51.3127 21.2797 51.7077 21.3121 52.0482 21.3871C52.3444 21.4536 52.6509 21.4997 52.9539 21.5082C53.1344 21.5133 53.3421 21.469 53.4953 21.3769C53.8988 21.1313 54.2564 20.8038 54.6735 20.5906C54.9714 20.4371 55.0617 20.2188 55.1604 19.9408C55.3579 19.3848 55.5928 18.8408 55.8074 18.2899C55.8618 18.1517 55.9708 17.9846 55.9334 17.8686C55.8142 17.4883 56.0474 17.2683 56.2619 17.0551C56.4101 16.9067 56.6535 16.8504 56.7931 16.6986C56.9276 16.552 57.0621 16.3286 57.0485 16.1495C57.04 16.0335 56.7778 15.8851 56.6076 15.8459L56.611 15.8493ZM15.3552 24.6242C15.9783 24.5525 16.3903 24.9158 16.867 25.3371C16.2013 25.5383 15.6412 25.3541 15.0504 25.2501C15.1543 25.0386 15.2496 24.8442 15.3569 24.6259L15.3552 24.6242ZM13.542 17.5872C13.5743 17.2853 13.5879 17.0022 13.6424 16.7276C13.6816 16.5332 13.8501 16.3985 14.034 16.4906C14.1566 16.5503 14.2877 16.7362 14.2928 16.8709C14.3115 17.2768 14.1412 17.4235 13.542 17.5872ZM32.4179 6.10399C32.6052 5.89762 32.8146 5.83964 33.0666 5.97608C33.482 6.19779 34.083 6.87829 34.3844 7.50422C34.146 7.52298 33.9349 7.55368 33.7238 7.55197C33.2369 7.54515 32.7499 7.53321 32.2647 7.50422C31.8578 7.48034 31.7744 7.41041 31.5752 7.01474C31.8527 6.71627 32.137 6.41269 32.4162 6.10399H32.4179ZM29.5015 16.8556C29.9476 16.245 30.5145 16.5452 31.0202 16.552C30.5349 16.6492 30.0514 16.7464 29.5015 16.8556ZM34.8168 14.2444C34.4184 14.1984 34.1801 14.1165 33.9264 13.8726C33.7204 13.6748 33.2556 13.6338 32.9338 13.6918C32.2988 13.8044 31.6893 13.7106 31.0678 13.6543C30.7018 13.6202 30.3289 13.6117 29.9629 13.6407C29.6394 13.6662 29.3585 13.6458 29.0623 13.2757C30.1229 13.1085 31.0832 13.4411 32.0502 13.3695C33.0292 13.2979 34.0132 13.2791 35.0943 13.233C34.9837 13.6321 34.9053 13.9204 34.8151 14.2444H34.8168ZM37.3502 10.8692C37.0778 10.656 36.8445 10.4906 36.63 10.3013C36.407 10.1034 36.1942 10.0557 35.9132 10.2006C35.5796 10.3729 35.2203 10.3865 34.8372 10.3712C34.1324 10.3422 33.4224 10.4172 32.7159 10.4343C32.28 10.4445 31.8442 10.4411 31.4083 10.4224C30.8159 10.3951 30.2217 10.3644 29.6309 10.303C29.2189 10.2603 29.1627 10.1819 29.0197 9.69751C29.6769 9.53549 30.3255 9.64123 30.9742 9.69751C32.0264 9.79131 33.07 9.9721 34.1375 9.80496C34.5665 9.73674 35.0177 9.82713 35.4587 9.83395C35.8179 9.84077 36.1482 9.77767 36.4513 9.5406C36.8599 9.22167 37.294 9.37517 37.4949 9.86124C37.6345 10.1955 37.626 10.5059 37.3485 10.8641L37.3502 10.8692ZM42.3693 10.7157C42.1769 10.9084 41.9607 10.963 41.7478 10.7021C41.6542 10.5878 41.5129 10.511 41.3886 10.4258C41.1537 10.2637 41.0123 10.0488 41.0209 9.76061C41.0328 9.3854 41.0447 9.00848 41.089 8.63668C41.1315 8.26829 41.4754 7.97494 41.7785 8.12673C42.5548 8.51729 43.4044 8.4269 44.4004 8.62474C43.6513 9.39734 43.0162 10.0625 42.3676 10.7157H42.3693ZM115.944 32.7049C115.764 32.6657 115.58 32.6264 115.403 32.5889C115.42 32.3553 115.432 32.166 115.444 31.9988C114.844 31.627 114.645 32.1353 114.383 32.4423C114.089 32.2188 114.089 32.2188 114.148 32.0039C114.163 31.9494 114.221 31.8811 114.204 31.8487C114.015 31.4906 113.949 31.0523 113.438 30.9295C112.669 30.7453 111.913 30.5065 111.153 30.2882C110.772 30.179 110.391 30.0631 110.009 29.9539C108.904 29.6401 107.794 29.3399 106.694 29.0091C106.461 28.9391 106.257 28.7703 106.075 28.6662C106.233 28.0096 106.536 27.469 106.109 26.8874C106.311 26.7185 106.488 26.5906 106.643 26.4371C106.829 26.2529 106.958 26.0926 106.892 25.7515C106.791 25.2313 106.691 24.6702 107.067 24.1671C107.192 24 107.203 23.7492 107.272 23.5395C107.406 23.1301 107.546 22.7225 107.713 22.2228C107.685 22.1938 107.607 22.0471 107.484 21.9806C106.924 21.6822 106.364 21.3837 105.695 21.4025C105.528 21.4076 105.361 21.324 105.193 21.3001C105.011 21.2728 104.823 21.2575 104.639 21.2575C104.508 21.2575 104.379 21.3018 104.248 21.3052C102.944 21.3428 101.641 21.3871 100.337 21.4093C98.8713 21.4332 97.4037 21.4468 95.9378 21.4451C95.3334 21.4451 95.2415 21.3376 95.1308 20.6213C95.4696 20.5275 95.8152 20.403 96.171 20.3399C96.7107 20.2427 97.2573 20.1455 97.8038 20.125C98.7981 20.0875 99.7974 20.0722 100.792 20.1097C101.643 20.1421 102.491 20.2649 103.339 20.3416C103.889 20.3928 104.44 20.432 104.992 20.4798C105.341 20.5105 105.688 20.5787 106.037 20.5787C106.747 20.5753 107.175 20.0722 107.615 19.6134C107.665 19.5622 107.663 19.4428 107.658 19.3575C107.605 18.5338 107.364 17.7441 106.722 17.2325C105.942 16.61 105.229 15.9346 104.553 15.2063C103.429 13.9971 102.491 12.6617 101.701 11.2103C101.417 10.6884 101.037 10.2143 100.669 9.74356C100.312 9.28477 99.9115 9.25919 99.4876 9.62588C98.9411 10.0966 98.2635 10.4326 97.9264 11.125C97.8906 11.1984 97.797 11.2444 97.7255 11.2973C97.2505 11.6537 96.9525 12.1637 96.7124 12.6753C96.0978 13.9801 95.2636 15.1159 94.2523 16.129C93.6581 16.7242 93.0265 17.2836 92.4629 17.9044C91.8926 18.5304 91.3018 19.1137 90.5323 19.4923C90.5731 20.1165 90.7127 20.6896 91.06 21.2029C91.1418 21.324 91.1877 21.4724 91.2422 21.6105C91.3784 21.9602 91.4959 22.0045 91.8432 21.8595C92.0731 21.764 92.3131 21.6907 92.6179 21.5832C92.6366 21.9346 92.6485 22.1733 92.6604 22.4121C92.6059 22.3746 92.5532 22.3371 92.4987 22.2996C92.3438 22.5145 92.0543 22.7345 92.0594 22.9459C92.0696 23.3672 91.8739 23.6878 91.7496 24.0511C91.547 24.6378 91.6491 24.7964 92.2569 24.9465C92.3267 25.1802 92.4425 25.4206 92.1412 25.5878C91.7683 25.7942 91.6576 26.1404 91.7394 26.5036C91.9794 27.1944 92.2178 27.8868 92.468 28.6117C92.2433 28.6986 92.0833 28.76 91.9879 28.7976C91.9164 29.166 91.6866 29.5992 91.816 29.8243C92.199 30.4928 92.0577 31.187 92.119 31.8726C92.1309 31.9988 92.2076 32.1199 92.2501 32.2444C92.2995 32.3894 92.3574 32.5344 92.3897 32.6827C92.5412 33.3854 92.5872 34.0932 92.5498 34.8146C92.5327 35.1404 92.6093 35.4798 92.6928 35.7987C92.8273 36.3121 93.0231 36.8084 93.1542 37.3217C93.2665 37.7635 93.4981 38.0295 93.9152 38.0534C94.2165 37.888 94.4821 37.6219 94.7511 37.6185C95.427 37.6083 96.0672 37.4565 96.7074 37.2927C97.7323 37.0301 98.8049 36.9857 99.8008 36.6156C100.225 36.4587 100.645 36.3854 101.096 36.3871C101.326 36.3871 101.56 36.2916 101.786 36.22C102.077 36.1296 102.35 36.0051 102.619 36.3001C102.802 36.4997 103.06 36.4587 103.291 36.3496C103.901 36.0614 104.505 35.7817 105.15 35.5633C105.596 35.4116 105.956 35.0398 106.494 35.212C106.557 35.2325 106.657 35.154 106.735 35.1148C106.974 34.9954 107.207 34.8692 107.445 34.7498C108.051 34.4479 108.089 33.7538 108.45 33.2831C108.484 33.2387 108.429 33.1176 108.402 33.0358C108.247 32.5872 108.089 32.1387 107.932 31.6918C107.949 31.6373 107.966 31.5827 107.983 31.5281C108.7 31.9204 109.572 31.4087 110.241 32.0636C110.792 31.6918 111.296 32.0039 111.737 32.2239C112.297 32.5054 112.847 32.7475 113.469 32.8413C113.622 32.8652 113.811 32.9539 113.898 33.075C114.267 33.5849 114.691 33.6941 115.209 33.3752C115.256 33.3462 115.325 33.3462 115.391 33.3291C115.434 33.4263 115.464 33.5099 115.507 33.5867C115.546 33.6566 115.599 33.7197 115.653 33.7947C116.041 33.2916 116.142 32.8942 115.948 32.7066L115.944 32.7049ZM99.7106 16.9732C99.2697 17.0125 98.9019 17.0704 98.7317 16.5997C99.2884 16.3251 99.3718 16.3524 99.7106 16.9732ZM95.5071 25.2961C96.2681 25.1768 97.0342 25.0813 97.7953 24.955C98.5767 24.8254 99.3548 24.7248 100.153 24.805C100.475 24.8374 100.805 24.7589 101.132 24.747C101.415 24.735 101.699 24.7453 101.984 24.7453C101.989 24.8067 101.994 24.8681 101.999 24.9295C101.772 25.1256 101.481 25.0642 101.211 25.0557C100.8 25.042 100.376 24.9056 100.031 25.2672C99.9949 25.3047 99.903 25.2876 99.8366 25.291C98.4303 25.3814 97.0257 25.4718 95.6194 25.5571C95.5156 25.5639 95.41 25.5315 95.1802 25.5008C95.3538 25.3899 95.4253 25.3115 95.5054 25.2996L95.5071 25.2961ZM95.0933 28.8828C95.1019 28.5196 95.3249 28.4275 95.5275 28.3729C96.1217 28.2109 96.7193 28.0506 97.3254 27.9414C98.5597 27.7197 99.7974 27.5082 101.039 27.3376C101.648 27.2524 102.271 27.2643 103.007 27.2268C102.85 27.4042 102.779 27.5594 102.665 27.6003C102.273 27.7419 101.875 27.8817 101.466 27.9533C100.642 28.1 99.8094 28.1955 98.9836 28.3251C97.7833 28.5145 96.5865 28.7157 95.3879 28.9084C95.3062 28.9221 95.2176 28.8965 95.0933 28.8845V28.8828ZM106.119 33.1773C105.782 33.1654 105.492 33.2473 105.176 33.3905C104.835 33.544 104.401 33.5594 104.016 33.527C103.63 33.4946 103.281 33.4877 103.085 33.6463C102.738 33.5679 102.501 33.4485 102.287 33.4775C101.432 33.5935 100.586 33.7589 99.7345 33.8988C98.8611 34.042 97.9893 34.1887 97.1143 34.3132C96.549 34.3951 96.1421 34.0915 96.0059 33.527C95.965 33.3581 95.9276 33.1876 95.8697 32.9386C98.398 32.4354 100.863 31.7771 103.47 31.7174C103.541 32.2274 103.611 32.739 104.164 32.9931C104.583 32.7834 104.907 32.5463 104.88 31.9749C104.844 31.2467 105.792 30.4741 106.575 31.1171C106.694 31.2143 106.819 31.3047 106.965 31.4172C106.926 31.6236 106.839 31.8402 106.858 32.0449C106.877 32.2495 107.003 32.4457 107.098 32.6878C106.875 33.0187 106.543 33.1876 106.121 33.1739L106.119 33.1773ZM65.3262 25.6492C64.6571 25.3746 64.0034 25.0591 63.3207 24.7521C63.3275 23.9829 63.4245 23.2632 64.0034 22.7311C64.2843 22.4735 64.618 22.2092 64.9738 22.1102C65.4233 21.9857 65.4267 21.6924 65.4437 21.3649C65.4522 21.191 65.3416 20.9522 65.4216 20.8482C65.8064 20.3519 65.4233 20.1063 65.1441 19.8061C64.9653 19.6134 64.7133 19.4258 64.6571 19.1955C64.5243 18.6566 64.1889 18.382 63.7156 18.1859C63.6033 18.1398 63.4705 17.971 63.4671 17.8567C63.4483 17.0244 63.3853 16.1802 63.4875 15.3598C63.5556 14.8175 63.3615 14.4133 63.1453 13.992C63.0363 13.7771 62.8133 13.598 62.5392 13.6662C62.0523 13.789 61.5636 13.9204 61.1022 14.1114C60.9609 14.1694 60.8418 14.4218 60.8162 14.6009C60.7004 15.4042 60.3616 16.1716 60.4638 17.0142C60.4961 17.2888 60.4144 17.594 60.3259 17.8652C60.1761 18.3257 59.9888 18.6873 59.3946 18.8305C58.3833 19.0744 57.8777 19.8129 58.0905 20.9096C58.2897 21.9414 58.8362 22.7379 59.6125 23.3962C60.159 23.8601 60.2459 24.4485 60.2254 25.0693C59.3674 25.5179 58.5161 25.1597 57.6121 25.233C57.8061 25.6287 57.7397 25.905 57.4963 26.1472C57.4214 26.2222 57.3941 26.3433 57.3379 26.4371C56.8221 27.3035 57.532 28.2399 58.4701 28.4565C59.0899 28.5997 59.7368 28.6202 60.4519 28.7038C60.4774 29.0756 60.5132 29.4695 60.5319 29.8635C60.5677 30.6805 60.5608 31.5025 60.6323 32.316C60.6868 32.9334 61.1278 33.1057 61.6828 32.7919C61.8548 32.6947 62.0267 32.5685 62.2123 32.5309C62.6175 32.4491 62.7554 32.1864 62.7792 31.8214C62.8286 31.0898 62.8984 30.3598 62.9069 29.6264C62.912 29.1677 63.0142 28.7549 63.1879 28.3388C63.3343 27.9874 63.559 27.8169 63.937 27.8084C64.732 27.7879 65.4284 27.527 66.0243 26.9761C66.2677 26.7509 66.2814 26.5616 66.1366 26.2939C65.9562 25.9579 65.6667 25.7959 65.3262 25.656V25.6492ZM69.1859 16.8061C69.4327 16.7447 69.7103 16.6816 69.9503 16.7328C71.1881 16.9988 72.4445 17.0687 73.701 17.1233C75.3065 17.1915 76.9154 17.212 78.652 17.2563C78.6043 17.5923 78.5873 17.8277 78.5328 18.0545C78.4409 18.4417 78.3064 18.8203 78.228 19.2109C78.1174 19.7686 77.9573 20.3348 77.9727 20.8925C77.9914 21.5747 77.833 22.1512 77.421 22.6765C77.1299 23.0466 77.1316 23.0449 77.4891 23.4695C77.5436 23.5343 77.5777 23.6179 77.6151 23.6964C77.8518 24.1927 78.3489 24.4383 78.8988 24.3769C79.5032 24.3087 79.8029 23.8669 80.0855 23.4269C80.9334 22.1051 81.3215 20.594 81.771 19.1171C81.914 18.648 82.0179 18.1893 82.3499 17.8089C82.7619 17.3365 82.8436 16.6799 82.7023 16.1836C82.2767 14.6896 81.519 13.4087 79.7705 13.0642C79.6905 13.2023 79.6071 13.349 79.5237 13.4923C79.3279 13.4411 79.1423 13.3558 78.955 13.3507C78.6264 13.3388 78.2978 13.3968 77.9693 13.3882C77.5062 13.3763 77.0022 13.2006 76.5885 13.3303C75.7219 13.5997 74.8723 13.4189 74.0177 13.4292C73.7299 13.4326 73.4848 13.3729 73.3962 13.0096C74.1726 12.9124 74.9507 13.2484 75.7219 12.9721C75.6283 12.9192 75.5295 12.9022 75.4291 12.8953C74.5438 12.8374 73.6601 12.7743 72.7731 12.7282C72.4769 12.7129 72.2947 12.6566 72.2232 12.3035C72.0853 11.6282 71.3924 11.4491 70.9548 11.0415C70.8714 10.963 70.5666 11.0483 70.41 11.137C69.9503 11.3979 69.5043 11.6878 69.0701 11.9897C68.8045 12.1739 68.6513 12.4263 68.6751 12.7845C68.687 12.9687 68.6309 13.1921 68.5287 13.3439C68.1797 13.8556 68.1167 14.4576 67.943 15.0255C67.8017 15.4826 67.9056 15.909 68.0929 16.3183C68.3057 16.7839 68.6938 16.9323 69.191 16.8078L69.1859 16.8061ZM87.1204 26.038C86.8565 26.2205 86.5194 26.5105 86.2725 26.4593C85.5643 26.3126 84.8662 26.4013 84.1648 26.3723C82.9696 26.3212 82.0111 26.6793 81.456 27.8305C81.3573 28.0352 81.1666 28.233 80.9674 28.3456C80.6099 28.5503 80.1979 28.6577 79.8369 28.8573C78.8307 29.415 77.6866 29.316 76.614 29.5463C75.5397 29.7765 74.4416 29.9624 73.3264 29.8482C73.2839 29.843 73.2379 29.8584 73.1936 29.8618C72.516 29.9079 71.8401 29.9641 71.1625 29.9965C70.7556 30.0153 70.6432 29.9232 70.5973 29.5122C70.5581 29.1591 70.5666 28.801 70.5717 28.4445C70.5837 27.5662 70.7948 27.3394 71.6614 27.1535C72.419 26.9897 73.1766 26.8618 73.9564 26.855C74.4076 26.8499 74.7787 26.6878 75.0545 26.2546C75.4665 25.6066 75.7594 24.9209 75.8479 24.1722C75.9552 23.2478 75.9688 22.3132 76.0539 21.3871C76.1288 20.5668 75.7406 19.9784 75.1822 19.4599C74.7804 19.0864 74.2969 19.0471 73.7844 19.3064C73.5716 19.4138 73.3401 19.4974 73.1068 19.552C72.5041 19.6935 71.8963 19.8129 71.2902 19.9408C70.9684 20.0091 70.7233 19.9391 70.4424 19.7157C70.1257 19.4633 69.7052 19.3354 69.3153 19.1904C69.0667 19.0983 68.8198 19.1853 68.7075 19.4411C68.5457 19.8078 68.4129 20.1881 68.2835 20.5685C68.258 20.6418 68.3091 20.7407 68.3193 20.8277C68.3499 21.0682 68.4249 21.3121 68.3993 21.5474C68.3074 22.4258 68.2154 23.3075 68.0537 24.1756C67.9788 24.5815 67.9686 24.9585 68.0452 25.3575C68.149 25.8931 68.2376 26.4354 68.3057 26.9761C68.464 28.2296 68.5747 29.49 68.7602 30.7384C68.9594 32.0687 69.6251 32.594 70.7011 32.8976C70.8527 32.9403 71.0382 32.9096 71.1949 32.8669C71.5984 32.7578 71.9865 32.5889 72.3935 32.5071C73.2805 32.328 74.1743 32.1779 75.0698 32.0329C76.9443 31.7276 78.8239 31.4445 80.6967 31.1307C81.2177 31.0437 81.7472 30.9278 82.2307 30.7248C82.5354 30.5986 82.8283 30.3291 83.0105 30.0477C83.2386 29.693 83.3493 29.2615 83.574 28.7055C84.1137 28.523 84.793 28.2654 85.4893 28.0642C86.2163 27.8527 86.8105 27.4639 87.3111 26.9062C87.6482 26.5309 87.7231 26.096 87.5358 25.5503C87.3996 25.7157 87.2889 25.9187 87.1204 26.0363V26.038ZM70.8067 23.3467C71.5047 23.1114 72.1602 22.8897 72.8429 22.6594C72.6505 23.1404 71.7227 23.7595 70.7539 24.0409C70.7743 23.7629 70.7897 23.5565 70.8067 23.3467Z" fill="white"/>
<path d="M127.361 51.4656C127.77 51.4861 127.99 51.7726 128.203 52.0523C128.579 52.5469 129.074 52.7806 129.713 52.8249C130.283 51.7794 129.839 50.5003 128.826 50.2325C128.245 50.0807 127.656 50.1012 127.075 50.3297C126.704 50.4747 126.352 50.7493 125.896 50.5821C125.814 50.5514 125.647 50.6623 125.564 50.751C125.398 50.9267 125.269 51.133 125.118 51.3223C124.78 51.7436 124.77 52.1802 124.951 52.685C125.25 53.519 125.553 54.3428 126.03 55.0966C126.277 55.4889 126.491 55.905 126.694 56.3229C127.001 56.9556 126.873 57.1927 126.185 57.3189C126.056 57.3428 125.916 57.3837 125.793 57.3599C125.177 57.2388 124.523 57.4383 123.929 57.1313C123.875 57.104 123.781 57.0921 123.733 57.1211C123.34 57.3582 122.935 57.1723 122.572 57.0887C122.097 56.9795 121.527 57.0938 121.168 56.5873C120.831 56.9846 120.456 56.826 120.015 56.7254C120.054 56.5156 120.087 56.328 120.126 56.1404C120.18 55.8812 120.306 55.6185 120.286 55.3678C120.216 54.5116 120.582 53.7817 120.853 53.0142C121.413 53.1029 121.653 52.813 121.775 52.3473C121.844 52.0915 121.951 51.8459 122.038 51.5935C122.184 51.162 122.329 50.7271 122.482 50.2717C122.349 50.2257 122.266 50.1694 122.189 50.1745C121.687 50.2103 121.176 50.2172 120.686 50.3178C120.347 50.3877 120.024 50.5924 119.913 50.9693C119.659 51.834 119.295 52.6629 119.174 53.5719C119.123 53.9608 119.07 54.4537 118.633 54.6464C118.364 54.7641 118.277 54.9431 118.204 55.1802C118.055 55.6646 117.933 56.1626 117.735 56.6265C117.584 56.9829 117.339 57.3002 117.121 57.6242C116.991 57.8186 116.83 57.9909 116.693 58.1802C116.525 58.4156 116.445 58.7311 116.651 58.9136C116.818 59.062 117.134 59.0756 117.388 59.0858C117.601 59.0944 117.824 58.9579 118.032 58.9818C118.307 59.0142 118.587 59.241 118.835 59.2035C119.104 59.1626 119.324 58.8522 119.598 58.7635C120.076 58.6117 120.577 58.5094 121.076 58.4412C121.864 58.3337 122.657 58.2552 123.451 58.199C123.66 58.1836 123.917 58.2314 124.086 58.3491C124.699 58.7737 125.373 58.7464 126.061 58.7123C126.888 58.6697 127.605 58.3422 128.247 57.8476C128.732 57.4741 129.008 56.5924 128.769 56.0381C128.437 55.2672 128.034 54.527 127.647 53.7817C127.373 53.2547 127.036 52.7584 126.796 52.216C126.549 51.66 126.754 51.4349 127.363 51.4639L127.361 51.4656ZM109.354 52.9562C109.47 52.581 109.458 52.2024 109.212 51.9517C108.834 51.5662 108.55 51.0853 108.041 50.8209C107.193 50.3792 106.345 50.0261 105.361 49.9716C104.297 49.9119 103.259 49.8112 102.237 50.2666C101.958 50.3911 101.725 50.722 101.342 50.5975C101.302 50.5856 101.197 50.6572 101.187 50.7032C101.127 50.971 100.909 51.017 100.703 51.1126C100.572 51.1722 100.444 51.3036 100.383 51.4349C99.8196 52.6407 99.9098 53.9693 101.406 54.66C101.33 54.9892 101.255 55.2894 101.192 55.5912C101.086 56.0858 100.945 56.5787 100.894 57.0784C100.814 57.8391 100.797 58.6049 100.749 59.4508C100.863 59.519 101.047 59.6265 101.297 59.7749C101.551 59.2069 101.764 58.6782 102.019 58.1717C102.317 57.5816 102.642 57.0034 102.978 56.4321C103.048 56.3127 103.194 56.1984 103.327 56.1643C103.754 56.0551 104.193 55.9989 104.622 55.8982C105.608 55.668 106.594 55.4753 107.522 55.0114C108.434 54.556 109.058 53.9284 109.357 52.9545L109.354 52.9562ZM103.337 51.7078C102.968 51.9397 102.852 52.3269 102.63 52.6492C102.305 53.1199 102.007 53.6077 101.689 54.0836C101.662 54.1245 101.583 54.1313 101.423 54.1961C101.423 53.5173 101.393 52.8999 101.432 52.286C101.481 51.5116 101.876 51.1364 102.636 51.0477C102.959 51.0102 103.284 50.9693 103.645 50.9267C103.703 51.2916 103.562 51.5662 103.335 51.7095L103.337 51.7078ZM107.392 53.7595C107.047 54.0153 106.664 54.2302 106.192 54.2336C105.867 54.2371 105.542 54.324 105.22 54.3888C104.83 54.4673 104.444 54.5543 104.009 54.3769C104.51 53.3297 105.263 52.407 105.274 51.1944C105.642 51.0426 105.971 51.0477 106.296 51.2746C106.476 51.4008 106.682 51.4895 106.875 51.6003C107.289 51.8391 107.57 52.1512 107.472 52.6782C107.461 52.743 107.478 52.8112 107.478 52.8778C107.472 53.1762 107.694 53.5378 107.394 53.7578L107.392 53.7595ZM93.6172 56.9881C93.4231 57.0716 93.229 57.1569 93.052 57.2336C92.7302 56.9522 92.7949 56.6487 92.8783 56.34C93.0775 55.6117 93.2665 54.8817 93.2444 54.1177C93.2427 54.0563 93.2699 53.9949 93.2818 53.9403C93.4419 53.9062 93.5849 53.8755 93.687 53.8533C93.8062 52.5111 93.9203 51.2251 94.0395 49.8863C93.8079 49.917 93.6819 49.9306 93.5576 49.9511C93.43 49.9733 93.3057 50.0091 93.1763 50.0278C92.674 50.1029 92.5565 50.2206 92.4561 50.7254C92.3012 51.5065 92.1565 52.2894 91.976 53.0654C91.9028 53.3741 91.7427 53.664 91.5708 54.087C91.3358 53.8226 91.1758 53.6828 91.0685 53.5105C90.8591 53.1728 90.6804 52.8147 90.4846 52.4667C90.3092 52.1546 90.1253 51.8562 89.7167 51.7982C89.6061 51.7828 89.475 51.6822 89.412 51.585C89.194 51.2507 88.9812 50.9113 88.8059 50.5531C88.5811 50.0961 88.4381 50.091 88.0602 50.4218C87.5239 50.8925 87.6175 51.5116 87.5732 52.1C87.5443 52.4838 87.6124 52.8846 87.5273 53.253C87.4472 53.6043 87.2974 53.9301 87.3417 54.2064C87.3843 54.4826 87.3808 54.7317 87.1765 54.9534C87.1152 55.0199 87.1033 55.1376 87.088 55.2348C87.0506 55.4838 87.0233 55.7328 86.9978 55.9392C86.882 55.9903 86.8428 56.0159 86.8003 56.0244C85.9218 56.2069 86.0444 56.3502 85.9218 57.1126C85.8622 57.4792 85.8401 57.851 85.7924 58.3081C85.8605 58.3951 85.9882 58.5622 86.1022 58.7106C86.3968 58.5674 86.6471 58.4787 86.8582 58.332C87.105 58.1597 87.3962 57.9773 87.5239 57.7265C87.7826 57.2217 87.9631 56.6725 88.1419 56.1302C88.3087 55.6253 88.4245 55.1035 88.5777 54.5952C88.622 54.4468 88.7156 54.3121 88.811 54.1211C88.9744 54.3394 89.0732 54.4844 89.1855 54.6208C89.7133 55.2587 90.3654 55.8164 90.4914 56.7049C90.8779 56.9369 90.9204 57.3616 91.0736 57.7282C91.1281 57.8562 91.2865 57.9431 91.4056 58.0404C91.6287 58.2194 91.8653 58.3832 92.0815 58.5691C92.7387 59.1319 93.1303 59.108 93.6989 58.4412C93.813 58.3081 93.9016 58.1495 93.9799 57.9909C94.2761 57.3854 94.2489 57.3155 93.6189 56.9846L93.6172 56.9881ZM115.156 55.7942C114.592 55.8539 114.536 55.8471 114.477 55.3218C114.349 54.1961 114.259 53.0671 114.15 51.9414C114.099 51.4127 114.104 50.8448 113.384 50.7083C113.183 50.8363 113.002 51.046 112.859 51.0222C112.323 50.9335 112.115 51.3138 111.897 51.643C111.412 52.378 110.959 53.1353 110.503 53.8908C110.368 54.1126 110.287 54.336 110.271 54.6259C110.254 54.9466 110.091 55.3491 109.851 55.5469C109.456 55.8726 109.221 56.2871 108.988 56.7015C108.676 57.2558 108.419 57.8425 108.169 58.4292C108.045 58.7174 108.114 58.9954 108.394 59.1933C108.688 59.4031 109.001 59.4798 109.325 59.2973C109.573 59.1558 109.802 58.9784 110.03 58.8044C110.682 58.3098 111.327 57.805 111.982 57.3138C112.301 57.0767 112.558 57.1825 112.663 57.5799C112.692 57.6856 112.716 57.7999 112.709 57.909C112.663 58.581 113.023 58.975 113.588 59.2427C113.728 59.3093 113.845 59.4218 113.988 59.4781C114.221 59.5702 114.466 59.6316 114.693 59.7015C115.156 58.7447 115.609 57.8869 115.985 56.9966C116.227 56.4252 115.944 55.7123 115.156 55.7959V55.7942ZM111.33 55.7669C111.576 55.3712 111.821 54.9738 112.115 54.498C112.245 55.0983 111.983 55.5213 111.33 55.7669ZM72.7544 55.5708C72.3696 55.8488 72.0972 55.5401 71.6903 55.4787C71.629 54.2132 71.5728 52.9306 71.5013 51.6481C71.4809 51.2729 71.4622 50.8891 71.3702 50.5276C71.2698 50.1302 71.028 50.021 70.6586 50.1916C70.1154 50.4423 69.6677 50.8192 69.3374 51.3292C69.0548 51.7641 68.7602 52.1921 68.4776 52.6271C68.2239 53.0159 67.8834 53.3792 67.7591 53.8073C67.6536 54.1671 67.5191 54.4741 67.2671 54.7129C66.5248 55.4156 65.9698 56.2444 65.4965 57.1433C65.2275 57.6583 65.1611 58.1751 65.2734 58.7703C65.4556 58.7703 65.6242 58.8181 65.7467 58.7618C66.2064 58.5503 66.6712 58.3388 67.0969 58.0676C67.8443 57.5935 68.5559 57.0614 69.3016 56.5821C69.8124 56.2547 70.1308 56.4679 70.1376 57.0921C70.141 57.469 70.158 57.8442 70.1801 58.2194C70.1853 58.3235 70.1938 58.4599 70.2568 58.5247C70.57 58.8368 70.8867 59.1472 71.234 59.4201C71.4928 59.6248 71.8112 59.5207 71.9559 59.2342C72.3339 58.4821 72.6914 57.7197 73.0949 56.9829C73.2941 56.618 73.2549 56.2513 73.2277 55.8795C73.2072 55.6083 72.9076 55.4582 72.7578 55.5674L72.7544 55.5708ZM68.1729 55.4838C68.5406 54.7521 68.8862 54.0375 69.5128 53.5088C70.1529 53.9437 69.666 54.5526 69.9043 55.0352C69.3731 55.4105 68.7568 55.3286 68.1729 55.4855V55.4838ZM65.4028 51.7896C65.1832 51.6157 65.0164 51.3667 64.7814 51.2183C64.2519 50.8857 63.7258 50.49 63.1402 50.3127C62.3655 50.0773 61.5398 49.9818 60.7294 49.9136C60.1216 49.8624 59.4644 49.7584 58.9077 50.1063C58.2709 50.5037 57.6733 50.9659 57.0655 51.4093C56.9634 51.4844 56.8561 51.5952 56.8204 51.7095C56.5275 52.6629 56.3675 53.6077 57.1677 54.4178C57.2647 54.5168 57.4145 54.5628 57.5388 54.6344C57.5967 54.5031 57.7023 54.3735 57.7057 54.2422C57.7227 53.6009 57.6938 52.9579 57.7159 52.3166C57.7448 51.5492 57.9662 51.2592 58.6983 51.1433C59.2175 51.0597 59.7521 50.8465 60.4093 51.1091C60.1744 51.3786 59.9871 51.5799 59.8185 51.7931C59.684 51.9619 59.5529 52.1393 59.4474 52.3286C59.1613 52.8454 58.9536 53.4184 58.5995 53.8823C58.0598 54.5901 57.9559 55.4667 57.5644 56.2257C57.5456 56.2615 57.5576 56.3127 57.5525 56.357C57.4963 56.9062 57.4639 57.4605 57.3737 58.0028C57.2817 58.5486 57.5184 59.1336 57.1762 59.6504C57.1558 59.6811 57.2205 59.7663 57.3192 60C57.5082 59.739 57.6529 59.5907 57.738 59.4116C58.0513 58.7533 58.3765 58.0983 58.637 57.4196C58.9332 56.6452 59.4406 56.2291 60.2714 56.1319C61.4393 55.9954 62.5851 55.7447 63.6594 55.2399C64.6656 54.7675 65.459 54.1057 65.6821 52.946C65.7638 52.5247 65.8046 52.1086 65.4011 51.7896H65.4028ZM63.5947 54.2558C62.9018 54.5475 62.1782 54.6703 61.4138 54.5901C61.0341 54.5492 60.6391 54.643 60.1556 54.6839C60.3957 54.1688 60.5251 53.6521 60.8332 53.2837C61.3695 52.6407 61.5023 51.8596 61.7594 51.0989C62.7486 51.0034 63.3257 51.6396 63.9761 52.1103C64.0612 52.1717 64.0834 52.3388 64.1072 52.4633C64.1498 52.6782 64.131 52.9153 64.2111 53.1114C64.4171 53.6128 64.0885 54.0495 63.5981 54.2558H63.5947ZM81.33 57.5321C80.7205 57.0699 79.9884 57.0887 79.3074 57.0597C78.6451 57.0324 78.1276 56.7049 77.4908 56.5804C77.5981 56.1131 77.7752 55.7226 77.7598 55.3422C77.7241 54.4724 78.0782 53.7476 78.4374 53.0176C79.1883 52.9016 79.1746 52.8965 79.4232 52.1597C79.5713 51.7197 79.7671 51.295 79.9391 50.8636C80.0191 50.664 80.0957 50.4628 80.2319 50.1114C79.7654 50.1438 79.4539 50.1285 79.1593 50.1933C78.5464 50.3263 78.0459 50.6128 77.8841 51.2933C77.7939 51.6737 77.404 51.9704 77.576 52.4275C77.5913 52.4684 77.5113 52.5401 77.4891 52.6015C77.3376 53.033 77.1742 53.4593 77.0465 53.8977C76.9699 54.1637 76.8422 54.3547 76.6157 54.5253C76.4199 54.672 76.2395 54.892 76.1492 55.1188C75.853 55.8556 75.5993 56.6111 75.3456 57.3138C75.1294 57.3445 74.8468 57.3274 74.8264 57.3957C74.6833 57.851 74.2373 58.2433 74.5029 58.8709C74.8179 58.8164 75.1447 58.6936 75.4546 58.726C75.7611 58.7584 76.0505 58.9477 76.3689 59.0773C76.6872 58.6117 77.2457 58.5247 77.736 58.4684C78.8307 58.3439 79.9374 58.3405 81.0406 58.2859C81.2313 58.2757 81.4203 58.2552 81.5888 58.2416C81.7097 57.8886 81.5735 57.7163 81.3317 57.5338L81.33 57.5321Z" fill="white"/>
</g>
<defs>
<clipPath id="clip0_86_19320">
<rect width="129.965" height="60" fill="white"/>
</clipPath>
</defs>
</svg>
